<?xml version="1.0" encoding="UTF-8"?><svg id="Capa_2" xmlns="http://www.w3.org/2000/svg" viewBox="0 0 513.26 242.25"><defs><style>.cls-1{fill:#2b4a79;}.cls-2{fill:#2c3033;font-family:Montserrat-Light, Montserrat;font-size:45.71px;}.cls-3{letter-spacing:-.06em;}</style></defs><g id="Capa_1-2"><path class="cls-1" d="M151.19,159.11L198.78,31.66l33.79,.04,84.18,127.41-38.63-.02-57.1-93.67-2.99,.16-31.88,93.55h-34.95Z"/><path class="cls-1" d="M434.16,40.93l-47.59,127.45-33.79-.04-84.18-127.41,38.63,.02,57.1,93.67,2.99-.16,31.88-93.55h34.95Z"/><text class="cls-2" transform="translate(149.49 211.66)"><tspan x="0" y="0">DIGI</tspan><tspan class="cls-3" x="97.17" y="0">T</tspan><tspan x="119.7" y="0">AL STUDIO</tspan></text><path class="cls-1" d="M51.36,0V38.79h51.93V173.95c0,9.74-2.5,17.67-7.48,23.78-4.99,6.12-12.8,9.17-23.44,9.17-11.55,0-20.1-3.62-25.65-10.87-5.55-7.25-8.33-17.44-8.33-30.58H0c0,24.46,6.57,43.38,19.71,56.74,13.13,13.37,31.26,20.05,54.36,20.05,21.29,0,37.94-6,49.94-18.01,12-12,18.01-28.76,18.01-50.28V0H51.36Z"/><rect class="cls-1" x="186.87" y="98.96" width="74.39" height="18.39"/></g></svg>